<?xml version="1.0" standalone="no"?>

<svg width="20" height="20" xmlns="http://www.w3.org/2000/svg" version="1.1">
	<!-- test1 曲線-->
	<!-- <path d="M0 100 Q50 10 100 100 T200 100" stroke="black" stroke-width="2" stroke-dasharray="10,10,5,2,1" fill="none"/> -->
	<!-- <path d="M200 100 Q150 10 100 100 T0 100" stroke="red" stroke-dasharray="10,10" fill="none"/> -->
	
	<!-- test2 日曆-->
	<rect x="5" y="1" width="2" height="2" fill="none" stroke="black"/>
	<rect x="13" y="1" width="2" height="2" fill="none" stroke="black"/>
	<rect x="1" y="3" rx="1" ry="1" width="18" height="16" fill="none" stroke="black"/>
	<path d="M1 5 L19 5" stroke="black" fill="none"/>
	<rect x="2" y="6" width="16" height="12" fill="none" stroke="black"/>
	<path d="M2 8 L18 8" stroke="black" fill="none"/>
	<path d="M2 10.5 H18" stroke="black" fill="none"/>
	<path d="M2 13 H18" stroke="black" fill="none"/>
	<path d="M2 15.5 H18" stroke="black" fill="none"/>
	<path d="M5 8 V18" stroke="black" fill="none"/>
	<path d="M8.3 8 V18" stroke="black" fill="none"/>
	<path d="M11.6 8 V18" stroke="black" fill="none"/>
	<path d="M14.9 8 V18" stroke="black" fill="none"/>
	
	<!-- test3 漸層-->
	<!-- <defs> -->
		<!-- <linearGradient id="Gradient1" x1="1" x2="0" y1="1" y2="0"> -->
			<!-- <stop offset="0%" stop-color="red"/> -->
			<!-- <stop offset="100%" stop-color="blue"/> -->
		<!-- </linearGradient> -->
	<!-- </defs> -->
	<!-- <rect x="10" y="10" rx="10" ry="10" width="180" height="180" fill="url(#Gradient1)"/> -->
</svg>